<svg xmlns="http://www.w3.org/2000/svg" style="display: none;">
    <symbol id="icon-source-code-normal" viewBox="0 0 100 100">
        <rect x="0" y="0" width="100" height="100" fill="#e0e7ff" rx="8" ry="8"/>
        <line x1="20" y1="25" x2="80" y2="25" stroke="#4f46e5" stroke-width="6" stroke-linecap="round"/>
        <line x1="20" y1="45" x2="70" y2="45" stroke="#4f46e5" stroke-width="6" stroke-linecap="round"/>
        <line x1="20" y1="65" x2="80" y2="65" stroke="#4f46e5" stroke-width="6" stroke-linecap="round"/>
        <line x1="20" y1="85" x2="60" y2="85" stroke="#4f46e5" stroke-width="6" stroke-linecap="round"/>
    </symbol>

    <symbol id="iconsourcecodehover" viewBox="0 0 100 100">
        <rect x="0" y="0" width="100" height="100" fill="#c7d2fe" rx="8" ry="8"/>
        <line x1="20" y1="25" x2="80" y2="25" stroke="#4f46e5" stroke-width="6" stroke-linecap="round"/>
        <line x1="20" y1="45" x2="70" y2="45" stroke="#4f46e5" stroke-width="6" stroke-linecap="round"/>
        <line x1="20" y1="65" x2="80" y2="65" stroke="#4f46e5" stroke-width="6" stroke-linecap="round"/>
        <line x1="20" y1="85" x2="60" y2="85" stroke="#4f46e5" stroke-width="6" stroke-linecap="round"/>
    </symbol>
</svg>


<svg>
<symbol id="iconsourcecodenormal2" viewBox="0 0 100 100">
    <rect x="0" y="0" width="100" height="100" fill="#e0e7ff" rx="8" ry="8"/> <line x1="20" y1="25" x2="80" y2="25" stroke="#4f46e5" stroke-width="6" stroke-linecap="round"/>
    <line x1="20" y1="45" x2="70" y2="45" stroke="#4f46e5" stroke-width="6" stroke-linecap="round"/>
    <line x1="20" y1="65" x2="80" y2="65" stroke="#4f46e5" stroke-width="6" stroke-linecap="round"/>
    <line x1="20" y1="85" x2="60" y2="85" stroke="#4f46e5" stroke-width="6" stroke-linecap="round"/>
</symbol>

<symbol id="icon-source-code-hover2" viewBox="0 0 100 100">
    <rect x="0" y="0" width="100" height="100" fill="#c7d2fe" rx="8" ry="8"/> <line x1="20" y1="25" x2="80" y2="25" stroke="#4f46e5" stroke-width="6" stroke-linecap="round"/>
    <line x1="20" y1="45" x2="70" y2="45" stroke="#4f46e5" stroke-width="6" stroke-linecap="round"/>
    <line x1="20" y1="65" x2="80" y2="65" stroke="#4f46e5" stroke-width="6" stroke-linecap="round"/>
    <line x1="20" y1="85" x2="60" y2="85" stroke="#4f46e5" stroke-width="6" stroke-linecap="round"/>
</symbol>
</svg>
